<svg width="155" height="45" viewBox="0 0 155 45" fill="none" xmlns="http://www.w3.org/2000/svg">
<path d="M39.3323 39.5864H33.8829V39.2585C33.8829 37.9701 35.1029 36.9258 36.6076 36.9258C38.1123 36.9258 39.3322 37.9702 39.3322 39.2585L39.3323 39.5864Z" fill="white"/>
<path d="M36.6076 23.375V34.5595C33.2725 36.1829 28.563 37.983 24.0926 37.983C17.9657 37.983 11.3896 34.6002 8.51535 32.9296C7.59016 32.3914 7.02832 31.4369 7.02832 30.41V23.375H36.6076Z" fill="#FF4667"/>
<path d="M36.1774 36.1814C35.308 36.2714 34.5072 36.6306 33.9259 37.1914C33.3447 37.7521 33.0232 38.4756 33.0223 39.2253V41.9302C33.0223 43.0269 33.7055 44.0403 34.8151 44.5886C35.9243 45.137 37.2912 45.137 38.4004 44.5886C39.5099 44.0403 40.1933 43.0269 40.1933 41.9302V39.2253C40.1923 38.4756 39.8708 37.7521 39.2897 37.1914C38.7084 36.6306 37.9076 36.2714 37.0383 36.1814" fill="white"/>
<path d="M41.3891 19.8467V25.7923C41.3891 26.6607 40.8272 27.4678 39.9021 27.923C39.1243 28.3057 38.0772 28.7932 36.8397 29.3013V19.8467H41.3891Z" fill="#FF4667"/>
<path d="M45.7784 18.9528L25.1405 26.095C24.4455 26.3355 23.6383 26.3349 22.944 26.0933L2.1933 18.8736C0.269569 18.2043 0.259354 16.2162 2.17613 15.5363L22.9156 8.18131C23.6257 7.92942 24.4565 7.9312 25.1648 8.18612L45.814 15.6187C47.7211 16.3051 47.7 18.2879 45.7784 18.9528Z" fill="white"/>
<path d="M24.0334 8.30469C24.3179 8.30469 24.6021 8.35094 24.8637 8.44344L46.0018 15.917C47.4014 16.4118 47.386 17.841 45.9758 18.3204L24.846 25.5031C24.5917 25.5896 24.3167 25.6329 24.0417 25.6329C23.7655 25.6329 23.4895 25.5892 23.2341 25.502L1.9919 18.2424C0.580091 17.7599 0.572662 16.3268 1.97925 15.8367L23.213 8.43996C23.4719 8.34978 23.7527 8.30469 24.0334 8.30469ZM24.0334 7.6416C23.6103 7.6416 23.1859 7.71164 22.8058 7.84401L1.57215 15.2408C0.598316 15.58 -0.0040425 16.2713 2.04246e-05 17.0448C0.00408335 17.8184 0.613639 18.5065 1.59095 18.8405L22.833 26.1C23.2081 26.2282 23.626 26.2959 24.0416 26.2959C24.4554 26.2959 24.8716 26.2288 25.2451 26.1017L46.3748 18.919C47.351 18.5871 47.9627 17.9015 47.971 17.1295C47.9794 16.3576 47.3827 15.6652 46.4138 15.3227L25.2758 7.84923C24.8916 7.71338 24.462 7.6416 24.0334 7.6416Z" fill="white"/>
<path d="M60.9925 30.9465C59.1407 30.9465 57.4765 30.6748 56 30.1314C54.5236 29.588 53.3599 28.8001 52.5091 27.7676C51.6582 26.7352 51.2328 25.4944 51.2328 24.0453V23.6106C51.2328 22.1616 51.6582 20.9208 52.5091 19.8883C53.3599 18.8559 54.5236 18.068 56 17.5246C57.4765 16.9812 59.1407 16.7095 60.9925 16.7095C62.8443 16.7095 64.5085 16.9812 65.985 17.5246C67.4614 18.068 68.6251 18.8559 69.476 19.8883C70.3268 20.9208 70.7522 22.1616 70.7522 23.6106V24.0453C70.7522 25.4944 70.3268 26.7352 69.476 27.7676C68.6251 28.8001 67.4614 29.588 65.985 30.1314C64.5085 30.6748 62.8443 30.9465 60.9925 30.9465ZM60.9925 27.9035C62.4439 27.9035 63.6451 27.5684 64.5961 26.8982C65.547 26.2099 66.0225 25.2318 66.0225 23.9638V23.6921C66.0225 22.4242 65.547 21.4551 64.5961 20.785C63.6702 20.0966 62.469 19.7525 60.9925 19.7525C59.5411 19.7525 58.3399 20.0966 57.3889 20.785C56.438 21.4551 55.9625 22.4242 55.9625 23.6921V23.9638C55.9625 25.2318 56.438 26.2099 57.3889 26.8982C58.3399 27.5684 59.5411 27.9035 60.9925 27.9035Z" fill="white"/>
<path d="M60.9926 16.2095C62.893 16.2095 64.617 16.4882 66.1576 17.0552C67.7025 17.6238 68.9452 18.4587 69.8617 19.5708C70.7925 20.7004 71.2523 22.0562 71.2523 23.6108V24.0454C71.2523 25.6001 70.7926 26.9558 69.8617 28.0854C68.9452 29.1975 67.7025 30.0325 66.1576 30.6011C64.6171 31.168 62.893 31.4468 60.9926 31.4468C59.0921 31.4468 57.368 31.168 55.8275 30.6011C54.2826 30.0325 53.0399 29.1975 52.1234 28.0854C51.1925 26.9558 50.7328 25.6001 50.7328 24.0454V23.6108L50.7386 23.3218C50.7925 21.8876 51.2507 20.6299 52.1234 19.5708C53.0399 18.4587 54.2826 17.6238 55.8275 17.0552C57.3681 16.4882 59.0921 16.2095 60.9926 16.2095ZM60.9926 20.2524C59.6211 20.2524 58.5293 20.5767 57.682 21.1899L57.6771 21.1938C56.8725 21.7609 56.4623 22.5696 56.4623 23.6919V23.9634C56.4623 25.0858 56.8728 25.9069 57.682 26.4927H57.681C58.5282 27.0882 59.6208 27.4038 60.9926 27.4038C62.364 27.4038 63.456 27.088 64.3031 26.4927L64.4496 26.3804C65.1617 25.8034 65.5228 25.0159 65.5228 23.9634V23.6919C65.5228 22.5696 65.1126 21.7609 64.308 21.1938L64.2972 21.186V21.1851C63.4791 20.5773 62.3913 20.2524 60.9926 20.2524Z" stroke="white" stroke-opacity="0.01"/>
<path d="M74.2715 35.4227V16.5125H78.9261V18.1427H79.6018C80.0272 17.6174 80.6904 17.1555 81.5913 16.757C82.4922 16.3404 83.781 16.1321 85.4576 16.1321C86.9591 16.1321 88.348 16.4038 89.6243 16.9472C90.9005 17.4725 91.9266 18.2513 92.7023 19.2838C93.4781 20.3162 93.866 21.5661 93.866 23.0332V23.4679C93.866 24.9351 93.4781 26.1849 92.7023 27.2174C91.9266 28.2498 90.9005 29.0378 89.6243 29.5812C88.348 30.1064 86.9591 30.3691 85.4576 30.3691C84.3315 30.3691 83.3806 30.2695 82.6048 30.0702C81.854 29.8891 81.2409 29.6536 80.7655 29.3638C80.315 29.0559 79.9521 28.748 79.6769 28.44H79.0012V35.4227H74.2715ZM84.0312 27.3804C85.5077 27.3804 86.7214 27.0453 87.6723 26.3751C88.6483 25.6868 89.1363 24.6906 89.1363 23.3864V23.1147C89.1363 21.8106 88.6483 20.8234 87.6723 20.1532C86.6964 19.4649 85.4826 19.1208 84.0312 19.1208C82.5798 19.1208 81.366 19.4649 80.3901 20.1532C79.4141 20.8234 78.9261 21.8106 78.9261 23.1147V23.3864C78.9261 24.6906 79.4141 25.6868 80.3901 26.3751C81.366 27.0453 82.5798 27.3804 84.0312 27.3804Z" fill="white"/>
<path d="M85.458 15.6321C87.0185 15.6321 88.4722 15.9147 89.8135 16.4846H89.8145C91.1679 17.0417 92.2691 17.8744 93.1025 18.9836C93.9519 20.1142 94.3662 21.4735 94.3662 23.0334V23.468C94.3662 25.028 93.952 26.3872 93.1025 27.5178C92.2701 28.6256 91.1711 29.4661 89.8203 30.0413L89.8145 30.0432C88.4728 30.5954 87.0189 30.8693 85.458 30.8694C84.3055 30.8694 83.3095 30.7678 82.4805 30.5549V30.554C81.7004 30.3652 81.0365 30.1143 80.5049 29.7903L80.4941 29.7844L80.4834 29.7766C80.1043 29.5174 79.7759 29.2507 79.501 28.9778V35.9231H73.7715V16.0129H79.4258V17.5881C79.9078 17.0873 80.5693 16.6631 81.3818 16.303L81.5732 16.22C82.5519 15.8171 83.859 15.6321 85.458 15.6321ZM84.0312 19.6204C82.6606 19.6204 81.5535 19.9449 80.6787 20.5618L80.6729 20.5657C79.8484 21.132 79.4258 21.9557 79.4258 23.1145V23.386C79.4258 24.5451 79.8492 25.3811 80.6787 25.9661H80.6777C81.5525 26.5652 82.6602 26.8801 84.0312 26.8801C85.4323 26.8801 86.5374 26.5625 87.3838 25.9661C88.2133 25.3811 88.6367 24.5451 88.6367 23.386V23.1145C88.6367 21.9558 88.2141 21.132 87.3896 20.5657L87.3838 20.5618C86.509 19.9449 85.4019 19.6204 84.0312 19.6204Z" stroke="white" stroke-opacity="0.01"/>
<path d="M97.385 36.0001V17.0899H102.04V18.72H102.715C103.141 18.1948 103.804 17.7329 104.705 17.3344C105.606 16.9178 106.894 16.7095 108.571 16.7095C110.073 16.7095 111.462 16.9812 112.738 17.5246C114.014 18.0499 115.04 18.8287 115.816 19.8612C116.592 20.8936 116.98 22.1434 116.98 23.6106V24.0453C116.98 25.5125 116.592 26.7623 115.816 27.7948C115.04 28.8272 114.014 29.6152 112.738 30.1586C111.462 30.6838 110.073 30.9465 108.571 30.9465C107.445 30.9465 106.494 30.8469 105.718 30.6476C104.968 30.4665 104.354 30.231 103.879 29.9412C103.429 29.6333 103.066 29.3253 102.79 29.0174H102.115V36.0001H97.385ZM107.145 27.9578C108.621 27.9578 109.835 27.6227 110.786 26.9525C111.762 26.2642 112.25 25.268 112.25 23.9638V23.6921C112.25 22.388 111.762 21.4008 110.786 20.7306C109.81 20.0423 108.596 19.6982 107.145 19.6982C105.693 19.6982 104.48 20.0423 103.504 20.7306C102.528 21.4008 102.04 22.388 102.04 23.6921V23.9638C102.04 25.268 102.528 26.2642 103.504 26.9525C104.48 27.6227 105.693 27.9578 107.145 27.9578Z" fill="white"/>
<path d="M108.572 16.2095C110.132 16.2095 111.586 16.492 112.927 17.062H112.928C114.281 17.6191 115.383 18.4518 116.216 19.561C117.065 20.6916 117.48 22.0509 117.48 23.6108V24.0454C117.48 25.6054 117.066 26.9646 116.216 28.0952C115.384 29.203 114.285 30.0435 112.934 30.6187L112.928 30.6206C111.586 31.1728 110.132 31.4467 108.572 31.4468C107.419 31.4468 106.423 31.3452 105.594 31.1323V31.1313C104.814 30.9426 104.15 30.6917 103.618 30.3677L103.608 30.3618L103.597 30.354C103.218 30.0948 102.889 29.8281 102.615 29.5552V36.5005H96.885V16.5903H102.539V18.1655C103.021 17.6647 103.683 17.2405 104.495 16.8804L104.687 16.7974C105.665 16.3945 106.973 16.2095 108.572 16.2095ZM107.145 20.1978C105.774 20.1978 104.667 20.5223 103.792 21.1392L103.786 21.1431C102.962 21.7094 102.539 22.5331 102.539 23.6919V23.9634C102.539 25.1225 102.963 25.9585 103.792 26.5435H103.791C104.666 27.1426 105.774 27.4575 107.145 27.4575C108.546 27.4575 109.651 27.1399 110.497 26.5435C111.327 25.9585 111.75 25.1225 111.75 23.9634V23.6919C111.75 22.5332 111.328 21.7094 110.503 21.1431L110.497 21.1392C109.622 20.5223 108.515 20.1978 107.145 20.1978Z" stroke="white" stroke-opacity="0.01"/>
<path d="M121.174 34.6822V21.206H125.904V34.6822H121.174ZM123.539 19.6301C122.688 19.6301 121.963 19.4309 121.362 19.0324C120.786 18.6339 120.499 18.1086 120.499 17.4565C120.499 16.8045 120.786 16.2792 121.362 15.8807C121.963 15.4822 122.688 15.283 123.539 15.283C124.415 15.283 125.141 15.4822 125.716 15.8807C126.292 16.2792 126.58 16.8045 126.58 17.4565C126.58 18.1086 126.292 18.6339 125.716 19.0324C125.141 19.4309 124.415 19.6301 123.539 19.6301Z" fill="white"/>
<path d="M126.404 20.7058V35.1824H120.674V20.7058H126.404ZM123.539 14.783C124.49 14.783 125.323 15.0002 126.001 15.4695C126.699 15.9533 127.08 16.6269 127.08 17.4568C127.08 18.2866 126.699 18.9594 126.001 19.4431C125.323 19.9125 124.491 20.1306 123.539 20.1306C122.608 20.1305 121.782 19.911 121.086 19.449L121.078 19.4431C120.379 18.9594 119.999 18.2866 119.999 17.4568C119.999 16.6269 120.379 15.9533 121.078 15.4695L121.086 15.4636L121.353 15.3025C121.99 14.9511 122.724 14.783 123.539 14.783Z" stroke="white" stroke-opacity="0.01"/>
<path d="M137.081 32.0673C135.754 32.0673 134.566 31.9043 133.515 31.5783C132.464 31.2341 131.625 30.7451 131 30.1111C130.399 29.459 130.099 28.6711 130.099 27.7473C130.099 26.8235 130.399 26.0537 131 25.4379C131.625 24.8039 132.476 24.333 133.552 24.0251C134.653 23.699 135.905 23.536 137.306 23.536H142.411V22.7752C142.411 22.1413 142.136 21.625 141.585 21.2266C141.035 20.81 140.159 20.6016 138.958 20.6016C137.781 20.6016 136.906 20.8009 136.33 21.1994C135.754 21.5798 135.379 22.0779 135.204 22.6937L130.85 21.6341C131.15 20.9458 131.625 20.3209 132.276 19.7594C132.952 19.1798 133.84 18.7179 134.941 18.3737C136.067 18.0115 137.431 17.8303 139.033 17.8303C141.485 17.8303 143.425 18.2741 144.851 19.1616C146.277 20.0492 146.991 21.3352 146.991 23.0198V28.0462C146.991 28.5896 147.341 28.8613 148.042 28.8613H149.543V31.6869H146.39C145.464 31.6869 144.701 31.5239 144.1 31.1979C143.5 30.8719 143.199 30.4371 143.199 29.8937V29.8666H142.486C142.386 30.0839 142.161 30.3737 141.81 30.736C141.46 31.0802 140.91 31.3881 140.159 31.6598C139.408 31.9315 138.382 32.0673 137.081 32.0673ZM137.907 29.296C139.233 29.296 140.309 29.0334 141.135 28.5081C141.986 27.9647 142.411 27.2492 142.411 26.3617V26.09H137.644C136.768 26.09 136.08 26.2258 135.579 26.4975C135.079 26.7692 134.828 27.1496 134.828 27.6386C134.828 28.1277 135.091 28.5262 135.617 28.8341C136.142 29.142 136.906 29.296 137.907 29.296Z" fill="white"/>
<path d="M139.032 17.3303C141.538 17.3303 143.581 17.783 145.115 18.7375C146.689 19.7167 147.49 21.1632 147.49 23.0198V28.0461C147.49 28.2015 147.534 28.2422 147.56 28.262C147.609 28.3004 147.742 28.3615 148.041 28.3616H150.043V32.1868H146.39C145.409 32.1867 144.557 32.0143 143.861 31.637C143.305 31.3347 142.91 30.9145 142.763 30.3752C142.613 30.595 142.411 30.8339 142.17 31.0833L142.161 31.093C141.737 31.5093 141.11 31.8475 140.329 32.1301C139.501 32.43 138.408 32.5676 137.081 32.5676C135.715 32.5676 134.474 32.3995 133.366 32.0559L133.359 32.054V32.053C132.251 31.6899 131.337 31.1649 130.644 30.4622L130.638 30.4563L130.632 30.4495C129.943 29.7009 129.599 28.7907 129.599 27.7473C129.599 26.7038 129.943 25.8057 130.642 25.0891L130.644 25.0872C131.342 24.379 132.274 23.8708 133.41 23.5452L133.851 23.425C134.252 23.3245 134.67 23.2452 135.104 23.1838L135.086 23.1799L130.732 22.1204L130.153 21.9797L130.391 21.4338C130.725 20.6677 131.25 19.9844 131.949 19.3811L131.95 19.3801C132.69 18.746 133.642 18.2563 134.788 17.8977L135.245 17.7639C136.336 17.4723 137.601 17.3303 139.032 17.3303ZM137.644 26.5901C136.81 26.5901 136.216 26.7206 135.818 26.9368C135.446 27.1383 135.328 27.3669 135.328 27.6389C135.328 27.9049 135.454 28.1589 135.869 28.4026C136.284 28.6454 136.943 28.7961 137.906 28.7961C139.17 28.7961 140.144 28.5453 140.866 28.0862C141.514 27.6723 141.834 27.1787 141.898 26.5901H137.644ZM138.957 21.1018C137.821 21.1019 137.067 21.2975 136.614 21.6106L136.606 21.6165C136.121 21.9364 135.825 22.3388 135.685 22.8303L135.601 23.1223C136.145 23.0652 136.714 23.0364 137.306 23.0364H141.911V22.7756C141.911 22.3151 141.724 21.9435 141.292 21.6311L141.283 21.6252C140.863 21.3076 140.121 21.1018 138.957 21.1018Z" stroke="white" stroke-opacity="0.01"/>
<path d="M120.4 12.4132V6.0817H117V4.77173H126V6.0817H122.6V12.4132H120.4Z" fill="#FF4667"/>
<path d="M130.579 12.4133C129.873 12.4133 129.247 12.2794 128.703 12.0115C128.169 11.7349 127.749 11.3504 127.444 10.8578C127.148 10.3566 127 9.76892 127 9.09486V8.9393C127 8.26524 127.148 7.68192 127.444 7.18934C127.74 6.68811 128.155 6.30355 128.689 6.03566C129.224 5.75912 129.844 5.62085 130.55 5.62085C131.247 5.62085 131.853 5.76344 132.368 6.04862C132.883 6.32516 133.284 6.71404 133.571 7.21526C133.857 7.70785 134 8.28253 134 8.9393V9.4967H128.832C128.851 9.93743 129.033 10.2961 129.376 10.5726C129.72 10.8491 130.14 10.9874 130.636 10.9874C131.142 10.9874 131.514 10.888 131.753 10.6893C131.991 10.4905 132.172 10.2701 132.297 10.0282L133.771 10.7282C133.637 10.9528 133.442 11.1991 133.184 11.467C132.936 11.7263 132.602 11.951 132.182 12.1411C131.762 12.3226 131.228 12.4133 130.579 12.4133ZM128.847 8.27821H132.168C132.13 7.90661 131.963 7.60847 131.667 7.38378C131.38 7.15909 131.003 7.04675 130.536 7.04675C130.049 7.04675 129.663 7.15909 129.376 7.38378C129.09 7.60847 128.913 7.90661 128.847 8.27821Z" fill="#FF4667"/>
<path d="M138.555 12.4133C137.891 12.4133 137.287 12.2837 136.743 12.0244C136.208 11.7652 135.784 11.3893 135.47 10.8967C135.157 10.4041 135 9.80781 135 9.10782V8.92634C135 8.22636 135.157 7.63007 135.47 7.13749C135.784 6.6449 136.208 6.26899 136.743 6.00973C137.287 5.75048 137.891 5.62085 138.555 5.62085C139.21 5.62085 139.773 5.72887 140.243 5.94492C140.713 6.16096 141.092 6.45911 141.377 6.83935C141.673 7.21094 141.866 7.63439 141.958 8.10969L140.271 8.44672C140.234 8.18747 140.151 7.95414 140.022 7.74674C139.893 7.53933 139.708 7.37514 139.468 7.25415C139.238 7.13317 138.947 7.07267 138.597 7.07267C138.246 7.07267 137.928 7.14613 137.642 7.29304C137.366 7.43131 137.144 7.64303 136.978 7.92821C136.821 8.20475 136.743 8.5461 136.743 8.95227V9.08189C136.743 9.48806 136.821 9.83373 136.978 10.1189C137.144 10.3955 137.366 10.6072 137.642 10.7541C137.928 10.8924 138.246 10.9615 138.597 10.9615C139.123 10.9615 139.519 10.8362 139.787 10.5856C140.063 10.3263 140.238 9.98928 140.312 9.57448L142 9.9504C141.88 10.4084 141.673 10.8275 141.377 11.2078C141.092 11.5794 140.713 11.8732 140.243 12.0892C139.773 12.3053 139.21 12.4133 138.555 12.4133Z" fill="#FF4667"/>
<path d="M143 12.4133V4.24536H144.908V7.33751H145.181C145.262 7.21305 145.388 7.08858 145.56 6.96412C145.731 6.83965 145.958 6.73853 146.241 6.66074C146.534 6.57517 146.903 6.53238 147.347 6.53238C147.932 6.53238 148.442 6.6374 148.877 6.84743C149.321 7.04969 149.664 7.33362 149.907 7.69923C150.149 8.05707 150.27 8.47713 150.27 8.95943V12.4133H148.362V9.07611C148.362 8.64049 148.22 8.31377 147.938 8.09596C147.665 7.87815 147.271 7.76924 146.756 7.76924C146.171 7.76924 145.716 7.92093 145.393 8.22431C145.07 8.51992 144.908 8.93609 144.908 9.47284V12.4133H143Z" fill="#FF4667"/>
</svg>
