<svg width="152" height="39" viewBox="0 0 152 39" fill="none" xmlns="http://www.w3.org/2000/svg">
<path d="M36.6076 20.7334V31.9179C33.2725 33.5413 28.563 35.3414 24.0926 35.3414C17.9657 35.3414 11.3896 31.9586 8.51535 30.288C7.59016 29.7498 7.02832 28.7953 7.02832 27.7684V20.7334H36.6076Z" fill="#FF4667"/>
<path d="M36.155 30C35.2857 30.09 34.4848 30.4492 33.9036 31.01C33.3224 31.5707 33.0008 32.2942 33 33.0439V35.7488C33 36.8455 33.6832 37.8589 34.7928 38.4072C35.902 38.9556 37.2688 38.9556 38.378 38.4072C39.4875 37.8589 40.1709 36.8455 40.1709 35.7488V33.0439C40.17 32.2942 39.8485 31.5707 39.2673 31.01C38.6861 30.4492 37.8853 30.09 37.0159 30" fill="#392C7D"/>
<path d="M41.1624 17.081V22.8879C41.1624 23.7388 40.6004 24.5294 39.6755 24.9748C36.8015 26.3588 30.2257 29.1612 24.0982 29.1612C17.9708 29.1612 11.3951 26.3588 8.52094 24.9748C7.59598 24.5294 7.03403 23.7388 7.03403 22.8879V17.081H41.1624ZM42.0911 16.406H6.10547V22.8879C6.10547 23.9732 6.81672 24.9638 8.00809 25.5375C9.52228 26.2668 11.9159 27.3217 14.7198 28.2062C18.1483 29.2879 21.3035 29.8363 24.0982 29.8363C26.8929 29.8363 30.0482 29.2879 33.4766 28.2062C36.2806 27.3217 38.6742 26.2667 40.1883 25.5375C41.3797 24.9638 42.0911 23.9732 42.0911 22.8879V16.406Z" fill="#FF4667"/>
<path d="M45.7784 16.3112L25.1405 23.4534C24.4455 23.6939 23.6383 23.6933 22.944 23.4517L2.1933 16.232C0.269569 15.5627 0.259354 13.5746 2.17613 12.8947L22.9156 5.53971C23.6257 5.28782 24.4565 5.28959 25.1648 5.54452L45.814 12.9771C47.7211 13.6635 47.7 15.6463 45.7784 16.3112Z" fill="#392C7D"/>
<path d="M24.0334 5.66309C24.3179 5.66309 24.6021 5.70934 24.8637 5.80184L46.0018 13.2754C47.4014 13.7702 47.386 15.1994 45.9758 15.6788L24.846 22.8615C24.5917 22.948 24.3167 22.9913 24.0417 22.9913C23.7655 22.9913 23.4895 22.9476 23.2341 22.8604L1.9919 15.6008C0.580091 15.1183 0.572662 13.6852 1.97925 13.1951L23.213 5.79836C23.4719 5.70818 23.7527 5.66309 24.0334 5.66309ZM24.0334 5C23.6103 5 23.1859 5.07004 22.8058 5.20241L1.57215 12.5992C0.598316 12.9384 -0.0040425 13.6297 2.04246e-05 14.4032C0.00408335 15.1768 0.613639 15.8649 1.59095 16.1989L22.833 23.4584C23.2081 23.5866 23.626 23.6543 24.0416 23.6543C24.4554 23.6543 24.8716 23.5872 25.2451 23.4601L46.3748 16.2774C47.351 15.9455 47.9627 15.2599 47.971 14.4879C47.9794 13.716 47.3827 13.0236 46.4138 12.6811L25.2758 5.20763C24.8916 5.07178 24.462 5 24.0334 5Z" fill="#392C7D"/>
<path d="M57.9925 30.9465C56.1407 30.9465 54.4765 30.6748 53 30.1314C51.5236 29.588 50.3599 28.8001 49.5091 27.7676C48.6582 26.7352 48.2328 25.4944 48.2328 24.0453V23.6106C48.2328 22.1616 48.6582 20.9208 49.5091 19.8883C50.3599 18.8559 51.5236 18.068 53 17.5246C54.4765 16.9812 56.1407 16.7095 57.9925 16.7095C59.8443 16.7095 61.5085 16.9812 62.985 17.5246C64.4614 18.068 65.6251 18.8559 66.4759 19.8883C67.3268 20.9208 67.7522 22.1616 67.7522 23.6106V24.0453C67.7522 25.4944 67.3268 26.7352 66.4759 27.7676C65.6251 28.8001 64.4614 29.588 62.985 30.1314C61.5085 30.6748 59.8443 30.9465 57.9925 30.9465ZM57.9925 27.9035C59.4439 27.9035 60.6451 27.5684 61.5961 26.8982C62.547 26.2099 63.0225 25.2318 63.0225 23.9638V23.6921C63.0225 22.4242 62.547 21.4551 61.5961 20.785C60.6702 20.0966 59.469 19.7525 57.9925 19.7525C56.5411 19.7525 55.3399 20.0966 54.3889 20.785C53.438 21.4551 52.9625 22.4242 52.9625 23.6921V23.9638C52.9625 25.2318 53.438 26.2099 54.3889 26.8982C55.3399 27.5684 56.5411 27.9035 57.9925 27.9035Z" fill="#392C7D"/>
<path d="M57.9926 16.2095C59.893 16.2095 61.617 16.4882 63.1576 17.0552C64.7025 17.6238 65.9452 18.4587 66.8617 19.5708C67.7925 20.7004 68.2523 22.0562 68.2523 23.6108V24.0454C68.2523 25.6001 67.7926 26.9558 66.8617 28.0854C65.9452 29.1975 64.7025 30.0325 63.1576 30.6011C61.6171 31.168 59.893 31.4468 57.9926 31.4468C56.0921 31.4468 54.368 31.168 52.8275 30.6011C51.2826 30.0325 50.0399 29.1975 49.1234 28.0854C48.1925 26.9558 47.7328 25.6001 47.7328 24.0454V23.6108C47.7328 22.0562 48.1925 20.7004 49.1234 19.5708C50.0399 18.4587 51.2826 17.6238 52.8275 17.0552C54.3681 16.4882 56.0921 16.2095 57.9926 16.2095ZM57.9926 20.2524C56.6211 20.2524 55.5293 20.5767 54.682 21.1899L54.6771 21.1938C53.8725 21.7609 53.4623 22.5696 53.4623 23.6919V23.9634C53.4623 25.0858 53.8728 25.9069 54.682 26.4927H54.681C55.5282 27.0882 56.6208 27.4038 57.9926 27.4038C59.364 27.4038 60.456 27.088 61.3031 26.4927L61.4496 26.3804C62.1617 25.8034 62.5228 25.0159 62.5228 23.9634V23.6919C62.5228 22.5696 62.1126 21.7609 61.308 21.1938L61.2972 21.186V21.1851C60.4791 20.5773 59.3913 20.2524 57.9926 20.2524Z" stroke="white" stroke-opacity="0.01"/>
<path d="M71.2715 35.4227V16.5125H75.9261V18.1427H76.6018C77.0272 17.6174 77.6904 17.1555 78.5913 16.757C79.4922 16.3404 80.781 16.1321 82.4576 16.1321C83.9591 16.1321 85.348 16.4038 86.6243 16.9472C87.9005 17.4725 88.9266 18.2513 89.7023 19.2838C90.4781 20.3162 90.866 21.5661 90.866 23.0332V23.4679C90.866 24.9351 90.4781 26.1849 89.7023 27.2174C88.9266 28.2498 87.9005 29.0378 86.6243 29.5812C85.348 30.1064 83.9591 30.3691 82.4576 30.3691C81.3315 30.3691 80.3806 30.2695 79.6048 30.0702C78.854 29.8891 78.2409 29.6536 77.7655 29.3638C77.315 29.0559 76.9521 28.748 76.6769 28.44H76.0012V35.4227H71.2715ZM81.0312 27.3804C82.5077 27.3804 83.7214 27.0453 84.6723 26.3751C85.6483 25.6868 86.1363 24.6906 86.1363 23.3864V23.1147C86.1363 21.8106 85.6483 20.8234 84.6723 20.1532C83.6964 19.4649 82.4826 19.1208 81.0312 19.1208C79.5798 19.1208 78.366 19.4649 77.3901 20.1532C76.4141 20.8234 75.9261 21.8106 75.9261 23.1147V23.3864C75.9261 24.6906 76.4141 25.6868 77.3901 26.3751C78.366 27.0453 79.5798 27.3804 81.0312 27.3804Z" fill="#392C7D"/>
<path d="M82.458 15.6321C84.0185 15.6321 85.4722 15.9147 86.8135 16.4846H86.8145C88.1679 17.0417 89.2691 17.8744 90.1025 18.9836C90.9519 20.1142 91.3662 21.4735 91.3662 23.0334V23.468C91.3662 25.028 90.952 26.3872 90.1025 27.5178C89.2701 28.6256 88.1711 29.4661 86.8203 30.0413L86.8145 30.0432C85.4728 30.5954 84.0189 30.8693 82.458 30.8694C81.3055 30.8694 80.3095 30.7678 79.4805 30.5549V30.554C78.7004 30.3652 78.0365 30.1143 77.5049 29.7903L77.4941 29.7844L77.4834 29.7766C77.1043 29.5174 76.7759 29.2507 76.501 28.9778V35.9231H70.7715V16.0129H76.4258V17.5881C76.9078 17.0873 77.5693 16.6631 78.3818 16.303L78.5732 16.22C79.5519 15.8171 80.859 15.6321 82.458 15.6321ZM81.0312 19.6204C79.6606 19.6204 78.5535 19.9449 77.6787 20.5618L77.6729 20.5657C76.8484 21.132 76.4258 21.9557 76.4258 23.1145V23.386C76.4258 24.5451 76.8492 25.3811 77.6787 25.9661H77.6777C78.5525 26.5652 79.6602 26.8801 81.0312 26.8801C82.4323 26.8801 83.5374 26.5625 84.3838 25.9661C85.2133 25.3811 85.6367 24.5451 85.6367 23.386V23.1145C85.6367 21.9558 85.2141 21.132 84.3896 20.5657L84.3838 20.5618C83.509 19.9449 82.4019 19.6204 81.0312 19.6204Z" stroke="white" stroke-opacity="0.01"/>
<path d="M94.385 36.0001V17.0899H99.0396V18.72H99.7153C100.141 18.1948 100.804 17.7329 101.705 17.3344C102.606 16.9178 103.894 16.7095 105.571 16.7095C107.073 16.7095 108.462 16.9812 109.738 17.5246C111.014 18.0499 112.04 18.8287 112.816 19.8612C113.592 20.8936 113.98 22.1434 113.98 23.6106V24.0453C113.98 25.5125 113.592 26.7623 112.816 27.7948C112.04 28.8272 111.014 29.6152 109.738 30.1586C108.462 30.6838 107.073 30.9465 105.571 30.9465C104.445 30.9465 103.494 30.8469 102.718 30.6476C101.968 30.4665 101.354 30.231 100.879 29.9412C100.429 29.6333 100.066 29.3253 99.7904 29.0174H99.1147V36.0001H94.385ZM104.145 27.9578C105.621 27.9578 106.835 27.6227 107.786 26.9525C108.762 26.2642 109.25 25.268 109.25 23.9638V23.6921C109.25 22.388 108.762 21.4008 107.786 20.7306C106.81 20.0423 105.596 19.6982 104.145 19.6982C102.693 19.6982 101.48 20.0423 100.504 20.7306C99.5276 21.4008 99.0396 22.388 99.0396 23.6921V23.9638C99.0396 25.268 99.5276 26.2642 100.504 26.9525C101.48 27.6227 102.693 27.9578 104.145 27.9578Z" fill="#392C7D"/>
<path d="M105.572 16.2095C107.132 16.2095 108.586 16.492 109.927 17.062H109.928C111.281 17.6191 112.383 18.4518 113.216 19.561C114.065 20.6916 114.48 22.0509 114.48 23.6108V24.0454C114.48 25.6054 114.066 26.9646 113.216 28.0952C112.384 29.203 111.285 30.0435 109.934 30.6187L109.928 30.6206C108.586 31.1728 107.132 31.4467 105.572 31.4468C104.419 31.4468 103.423 31.3452 102.594 31.1323V31.1313C101.814 30.9426 101.15 30.6917 100.618 30.3677L100.608 30.3618L100.597 30.354C100.218 30.0948 99.8894 29.8281 99.6145 29.5552V36.5005H93.885V16.5903H99.5393V18.1655C100.021 17.6647 100.683 17.2405 101.495 16.8804L101.687 16.7974C102.665 16.3945 103.973 16.2095 105.572 16.2095ZM104.145 20.1978C102.774 20.1978 101.667 20.5223 100.792 21.1392L100.786 21.1431C99.9619 21.7094 99.5394 22.5331 99.5393 23.6919V23.9634C99.5393 25.1225 99.9628 25.9585 100.792 26.5435H100.791C101.666 27.1426 102.774 27.4575 104.145 27.4575C105.546 27.4575 106.651 27.1399 107.497 26.5435C108.327 25.9585 108.75 25.1225 108.75 23.9634V23.6919C108.75 22.5332 108.328 21.7094 107.503 21.1431L107.497 21.1392C106.622 20.5223 105.515 20.1978 104.145 20.1978Z" stroke="white" stroke-opacity="0.01"/>
<path d="M118.174 34.6822V21.206H122.904V34.6822H118.174ZM120.539 19.6301C119.688 19.6301 118.963 19.4309 118.362 19.0324C117.786 18.6339 117.499 18.1086 117.499 17.4565C117.499 16.8045 117.786 16.2792 118.362 15.8807C118.963 15.4822 119.688 15.283 120.539 15.283C121.415 15.283 122.141 15.4822 122.716 15.8807C123.292 16.2792 123.58 16.8045 123.58 17.4565C123.58 18.1086 123.292 18.6339 122.716 19.0324C122.141 19.4309 121.415 19.6301 120.539 19.6301Z" fill="#392C7D"/>
<path d="M123.404 20.7058V35.1824H117.674V20.7058H123.404ZM120.539 14.783C121.49 14.783 122.323 15.0002 123.001 15.4695C123.699 15.9533 124.08 16.6269 124.08 17.4568C124.08 18.2866 123.699 18.9594 123.001 19.4431C122.323 19.9125 121.491 20.1306 120.539 20.1306C119.608 20.1305 118.782 19.911 118.086 19.449L118.078 19.4431C117.379 18.9594 116.999 18.2866 116.999 17.4568C116.999 16.6269 117.379 15.9533 118.078 15.4695L118.086 15.4636L118.353 15.3025C118.99 14.9511 119.724 14.783 120.539 14.783Z" stroke="white" stroke-opacity="0.01"/>
<path d="M134.081 32.0673C132.754 32.0673 131.566 31.9043 130.515 31.5783C129.464 31.2341 128.625 30.7451 128 30.1111C127.399 29.459 127.099 28.6711 127.099 27.7473C127.099 26.8235 127.399 26.0537 128 25.4379C128.625 24.8039 129.476 24.333 130.552 24.0251C131.653 23.699 132.905 23.536 134.306 23.536H139.411V22.7752C139.411 22.1413 139.136 21.625 138.585 21.2266C138.035 20.81 137.159 20.6016 135.958 20.6016C134.781 20.6016 133.906 20.8009 133.33 21.1994C132.754 21.5798 132.379 22.0779 132.204 22.6937L127.85 21.6341C128.15 20.9458 128.625 20.3209 129.276 19.7594C129.952 19.1798 130.84 18.7179 131.941 18.3737C133.067 18.0115 134.431 17.8303 136.033 17.8303C138.485 17.8303 140.425 18.2741 141.851 19.1616C143.277 20.0492 143.991 21.3352 143.991 23.0198V28.0462C143.991 28.5896 144.341 28.8613 145.042 28.8613H146.543V31.6869H143.39C142.464 31.6869 141.701 31.5239 141.1 31.1979C140.5 30.8719 140.199 30.4371 140.199 29.8937V29.8666H139.486C139.386 30.0839 139.161 30.3737 138.81 30.736C138.46 31.0802 137.91 31.3881 137.159 31.6598C136.408 31.9315 135.382 32.0673 134.081 32.0673ZM134.907 29.296C136.233 29.296 137.309 29.0334 138.135 28.5081C138.986 27.9647 139.411 27.2492 139.411 26.3617V26.09H134.644C133.768 26.09 133.08 26.2258 132.579 26.4975C132.079 26.7692 131.828 27.1496 131.828 27.6386C131.828 28.1277 132.091 28.5262 132.617 28.8341C133.142 29.142 133.906 29.296 134.907 29.296Z" fill="#392C7D"/>
<path d="M136.032 17.3303C138.538 17.3303 140.581 17.783 142.115 18.7375C143.689 19.7167 144.49 21.1632 144.49 23.0198V28.0461C144.49 28.2015 144.534 28.2422 144.56 28.262C144.609 28.3004 144.742 28.3615 145.041 28.3616H147.043V32.1868H143.39C142.409 32.1867 141.557 32.0143 140.861 31.637C140.305 31.3347 139.91 30.9145 139.763 30.3752C139.613 30.595 139.411 30.8339 139.17 31.0833L139.161 31.093C138.737 31.5093 138.11 31.8475 137.329 32.1301C136.501 32.43 135.408 32.5676 134.081 32.5676C132.715 32.5676 131.474 32.3995 130.366 32.0559L130.359 32.054V32.053C129.251 31.6899 128.337 31.1649 127.644 30.4622L127.638 30.4563L127.632 30.4495C126.943 29.7009 126.599 28.7907 126.599 27.7473C126.599 26.7038 126.943 25.8057 127.642 25.0891L127.644 25.0872C128.342 24.379 129.274 23.8708 130.41 23.5452L130.851 23.425C131.252 23.3245 131.67 23.2452 132.104 23.1838L132.086 23.1799L127.732 22.1204L127.153 21.9797L127.391 21.4338C127.725 20.6677 128.25 19.9844 128.949 19.3811L128.95 19.3801C129.69 18.746 130.642 18.2563 131.788 17.8977L132.245 17.7639C133.336 17.4723 134.601 17.3303 136.032 17.3303ZM134.644 26.5901C133.81 26.5901 133.216 26.7206 132.818 26.9368C132.446 27.1383 132.328 27.3669 132.328 27.6389C132.328 27.9049 132.454 28.1589 132.869 28.4026C133.284 28.6454 133.943 28.7961 134.906 28.7961C136.17 28.7961 137.144 28.5453 137.866 28.0862C138.514 27.6723 138.834 27.1787 138.898 26.5901H134.644ZM135.957 21.1018C134.821 21.1019 134.067 21.2975 133.614 21.6106L133.606 21.6165C133.121 21.9364 132.825 22.3388 132.685 22.8303L132.601 23.1223C133.145 23.0652 133.714 23.0364 134.306 23.0364H138.911V22.7756C138.911 22.3151 138.724 21.9435 138.292 21.6311L138.283 21.6252C137.863 21.3076 137.121 21.1018 135.957 21.1018Z" stroke="white" stroke-opacity="0.01"/>
<path d="M117.4 12.4132V6.0817H114V4.77173H123V6.0817H119.6V12.4132H117.4Z" fill="#FF4667"/>
<path d="M127.579 12.4133C126.873 12.4133 126.247 12.2794 125.703 12.0115C125.169 11.7349 124.749 11.3504 124.444 10.8578C124.148 10.3566 124 9.76892 124 9.09486V8.9393C124 8.26524 124.148 7.68192 124.444 7.18934C124.74 6.68811 125.155 6.30355 125.689 6.03566C126.224 5.75912 126.844 5.62085 127.55 5.62085C128.247 5.62085 128.853 5.76344 129.368 6.04862C129.883 6.32516 130.284 6.71404 130.571 7.21526C130.857 7.70785 131 8.28253 131 8.9393V9.4967H125.832C125.851 9.93743 126.033 10.2961 126.376 10.5726C126.72 10.8491 127.14 10.9874 127.636 10.9874C128.142 10.9874 128.514 10.888 128.753 10.6893C128.991 10.4905 129.172 10.2701 129.297 10.0282L130.771 10.7282C130.637 10.9528 130.442 11.1991 130.184 11.467C129.936 11.7263 129.602 11.951 129.182 12.1411C128.762 12.3226 128.228 12.4133 127.579 12.4133ZM125.847 8.27821H129.168C129.13 7.90661 128.963 7.60847 128.667 7.38378C128.38 7.15909 128.003 7.04675 127.536 7.04675C127.049 7.04675 126.663 7.15909 126.376 7.38378C126.09 7.60847 125.913 7.90661 125.847 8.27821Z" fill="#FF4667"/>
<path d="M135.555 12.4133C134.891 12.4133 134.287 12.2837 133.743 12.0244C133.208 11.7652 132.784 11.3893 132.47 10.8967C132.157 10.4041 132 9.80781 132 9.10782V8.92634C132 8.22636 132.157 7.63007 132.47 7.13749C132.784 6.6449 133.208 6.26899 133.743 6.00973C134.287 5.75048 134.891 5.62085 135.555 5.62085C136.21 5.62085 136.773 5.72887 137.243 5.94492C137.713 6.16096 138.092 6.45911 138.377 6.83935C138.673 7.21094 138.866 7.63439 138.958 8.10969L137.271 8.44672C137.234 8.18747 137.151 7.95414 137.022 7.74674C136.893 7.53933 136.708 7.37514 136.468 7.25415C136.238 7.13317 135.947 7.07267 135.597 7.07267C135.246 7.07267 134.928 7.14613 134.642 7.29304C134.366 7.43131 134.144 7.64303 133.978 7.92821C133.821 8.20475 133.743 8.5461 133.743 8.95227V9.08189C133.743 9.48806 133.821 9.83373 133.978 10.1189C134.144 10.3955 134.366 10.6072 134.642 10.7541C134.928 10.8924 135.246 10.9615 135.597 10.9615C136.123 10.9615 136.519 10.8362 136.787 10.5856C137.063 10.3263 137.238 9.98928 137.312 9.57448L139 9.9504C138.88 10.4084 138.673 10.8275 138.377 11.2078C138.092 11.5794 137.713 11.8732 137.243 12.0892C136.773 12.3053 136.21 12.4133 135.555 12.4133Z" fill="#FF4667"/>
<path d="M140 12.4133V4.24536H141.908V7.33751H142.181C142.262 7.21305 142.388 7.08858 142.56 6.96412C142.731 6.83965 142.958 6.73853 143.241 6.66074C143.534 6.57517 143.903 6.53238 144.347 6.53238C144.932 6.53238 145.442 6.6374 145.877 6.84743C146.321 7.04969 146.664 7.33362 146.907 7.69923C147.149 8.05707 147.27 8.47713 147.27 8.95943V12.4133H145.362V9.07611C145.362 8.64049 145.22 8.31377 144.938 8.09596C144.665 7.87815 144.271 7.76924 143.756 7.76924C143.171 7.76924 142.716 7.92093 142.393 8.22431C142.07 8.51992 141.908 8.93609 141.908 9.47284V12.4133H140Z" fill="#FF4667"/>
</svg>
