<svg width="134" height="43" viewBox="0 0 134 43" fill="none" xmlns="http://www.w3.org/2000/svg">
<path d="M31.6477 23.375V34.5595C28.7644 36.1829 24.693 37.983 20.8283 37.983C15.5315 37.983 9.84631 34.6002 7.36149 32.9296C6.56165 32.3914 6.07593 31.4369 6.07593 30.41V23.375H31.6477Z" fill="#FF4667"/>
<path d="M30.5581 34C29.8066 34.09 29.1142 34.4492 28.6117 35.01C28.1092 35.5707 27.8313 36.2942 27.8306 37.0439V39.7488C27.8306 40.8455 28.4212 41.8589 29.3804 42.4072C30.3394 42.9556 31.521 42.9556 32.48 42.4072C33.4391 41.8589 34.0299 40.8455 34.0299 39.7488V37.0439C34.0291 36.2942 33.7512 35.5707 33.2488 35.01C32.7463 34.4492 32.0539 34.09 31.3024 34" fill="white"/>
<path d="M35.7815 19.8467V25.7923C35.7815 26.6607 35.2958 27.4678 34.496 27.923C33.8236 28.3057 32.9183 28.7932 31.8485 29.3013V19.8467H35.7815Z" fill="#FF4667"/>
<path d="M39.576 18.9528L21.7341 26.095C21.1333 26.3355 20.4355 26.3349 19.8352 26.0933L1.89594 18.8736C0.232841 18.2043 0.22401 16.2162 1.88109 15.5363L19.8107 8.18131C20.4246 7.92942 21.1428 7.9312 21.7551 8.18612L39.6067 15.6187C41.2554 16.3051 41.2372 18.2879 39.576 18.9528Z" fill="white"/>
<path d="M20.7773 8.30469C21.0232 8.30469 21.2689 8.35094 21.4951 8.44344L39.7693 15.917C40.9792 16.4118 40.9659 17.841 39.7468 18.3204L21.4797 25.5031C21.2599 25.5896 21.0222 25.6329 20.7845 25.6329C20.5456 25.6329 20.307 25.5892 20.0862 25.502L1.72203 18.2424C0.501498 17.7599 0.495075 16.3268 1.71109 15.8367L20.068 8.43996C20.2918 8.34978 20.5346 8.30469 20.7773 8.30469ZM20.7773 7.6416C20.4115 7.6416 20.0446 7.71164 19.716 7.84401L1.35915 15.2408C0.517254 15.58 -0.00349481 16.2713 1.76574e-05 17.0448C0.00353012 17.8184 0.5305 18.5065 1.3754 18.8405L19.7395 26.1C20.0637 26.2282 20.4251 26.2959 20.7844 26.2959C21.142 26.2959 21.5018 26.2288 21.8247 26.1017L40.0918 18.919C40.9357 18.5871 41.4645 17.9015 41.4717 17.1295C41.479 16.3576 40.9631 15.6652 40.1254 15.3227L21.8513 7.84923C21.5192 7.71338 21.1478 7.6416 20.7773 7.6416Z" fill="white"/>
<path d="M51.5 35C49.6974 35 48.0776 34.6183 46.6404 33.855C45.2032 33.0916 44.0705 31.9847 43.2423 30.5344C42.4141 29.084 42 27.341 42 25.3053V24.6947C42 22.659 42.4141 20.916 43.2423 19.4656C44.0705 18.0153 45.2032 16.9084 46.6404 16.145C48.0776 15.3817 49.6974 15 51.5 15C53.3026 15 54.9224 15.3817 56.3596 16.145C57.7968 16.9084 58.9295 18.0153 59.7577 19.4656C60.5859 20.916 61 22.659 61 24.6947V25.3053C61 27.341 60.5859 29.084 59.7577 30.5344C58.9295 31.9847 57.7968 33.0916 56.3596 33.855C54.9224 34.6183 53.3026 35 51.5 35ZM51.5 30.7252C52.9128 30.7252 54.0821 30.2545 55.0077 29.313C55.9333 28.3461 56.3962 26.972 56.3962 25.1908V24.8092C56.3962 23.028 55.9333 21.6667 55.0077 20.7252C54.1064 19.7583 52.9372 19.2748 51.5 19.2748C50.0872 19.2748 48.9179 19.7583 47.9923 20.7252C47.0667 21.6667 46.6038 23.028 46.6038 24.8092V25.1908C46.6038 26.972 47.0667 28.3461 47.9923 29.313C48.9179 30.2545 50.0872 30.7252 51.5 30.7252Z" fill="white"/>
<path d="M51.5 14.5C53.3752 14.5 55.0769 14.8976 56.5938 15.7031C58.1167 16.512 59.3176 17.6876 60.1914 19.2178C61.0712 20.7585 61.5 22.5908 61.5 24.6943V25.3057C61.5 27.4092 61.0712 29.2415 60.1914 30.7822C59.3176 32.3124 58.1167 33.488 56.5938 34.2969C55.0769 35.1024 53.3752 35.5 51.5 35.5C49.6248 35.5 47.9231 35.1024 46.4062 34.2969C44.8833 33.488 43.6824 32.3124 42.8086 30.7822C41.9288 29.2415 41.5 27.4092 41.5 25.3057V24.6943C41.5 22.5908 41.9288 20.7585 42.8086 19.2178C43.6824 17.6876 44.8833 16.512 46.4062 15.7031C47.9231 14.8976 49.6248 14.5 51.5 14.5ZM51.5 19.7744C50.2955 19.7744 49.3095 20.1558 48.5107 20.9141L48.3486 21.0762C47.5435 21.8953 47.1035 23.1128 47.1035 24.8096V25.1904C47.1035 26.8864 47.5433 28.1204 48.3535 28.9668H48.3525C49.1765 29.8028 50.2129 30.2256 51.5 30.2256C52.7868 30.2256 53.8226 29.8025 54.6465 28.9668C55.4567 28.1204 55.8965 26.8864 55.8965 25.1904V24.8096C55.8965 23.1128 55.4565 21.8953 54.6514 21.0762L54.6416 21.0664C53.8437 20.2104 52.812 19.7744 51.5 19.7744Z" stroke="white" stroke-opacity="0.01"/>
<path d="M64 35.2906V16.3804H68.024V18.0106H68.6081C68.9759 17.4853 69.5492 17.0234 70.3281 16.6249C71.1069 16.2083 72.2211 16 73.6706 16C74.9687 16 76.1694 16.2717 77.2727 16.8151C78.3761 17.3404 79.2631 18.1192 79.9338 19.1517C80.6044 20.1842 80.9398 21.434 80.9398 22.9011V23.3359C80.9398 24.803 80.6044 26.0528 79.9338 27.0853C79.2631 28.1178 78.3761 28.9057 77.2727 29.4491C76.1694 29.9744 74.9687 30.237 73.6706 30.237C72.697 30.237 71.8749 30.1374 71.2043 29.9381C70.5552 29.757 70.0252 29.5215 69.6141 29.2317C69.2247 28.9238 68.911 28.6159 68.673 28.3079H68.0889V35.2906H64ZM72.4374 27.2483C73.7139 27.2483 74.7631 26.9132 75.5852 26.243C76.429 25.5547 76.8508 24.5585 76.8508 23.2544V22.9827C76.8508 21.6785 76.429 20.6913 75.5852 20.0211C74.7415 19.3328 73.6922 18.9887 72.4374 18.9887C71.1826 18.9887 70.1334 19.3328 69.2896 20.0211C68.4459 20.6913 68.024 21.6785 68.024 22.9827V23.2544C68.024 24.5585 68.4459 25.5547 69.2896 26.243C70.1334 26.9132 71.1826 27.2483 72.4374 27.2483Z" fill="white"/>
<path d="M73.6709 15.5C75.0383 15.5 76.3125 15.7866 77.4863 16.3633H77.4873C78.6746 16.9285 79.633 17.7697 80.3535 18.8789C81.0862 20.0069 81.4395 21.3563 81.4395 22.9014V23.3359C81.4394 24.8808 81.0861 26.2295 80.3535 27.3574C79.6338 28.4653 78.6774 29.3142 77.4932 29.8975L77.4873 29.9004C76.3128 30.4595 75.0384 30.7373 73.6709 30.7373C72.6702 30.7373 71.7996 30.6345 71.0703 30.4189V30.4199C70.4697 30.2523 69.9447 30.0356 69.5078 29.7617L69.3145 29.6328L69.3037 29.624C69.035 29.4116 68.7976 29.1927 68.5889 28.9717V35.791H63.5V15.8809H68.5244V17.3242C68.9291 16.8883 69.4566 16.5095 70.0918 16.1836C70.9755 15.7109 72.1859 15.5 73.6709 15.5ZM72.4375 19.4883C71.2794 19.4883 70.3466 19.8036 69.6055 20.4082L69.6006 20.4131C68.9018 20.9683 68.5245 21.7954 68.5244 22.9824V23.2539C68.5244 24.4379 68.8998 25.2773 69.6006 25.8516L69.7422 25.959C70.4598 26.4778 71.349 26.748 72.4375 26.748C73.6231 26.748 74.5538 26.4389 75.2695 25.8555C75.9734 25.2811 76.3506 24.4406 76.3506 23.2539V22.9824C76.3505 21.7955 75.9732 20.9683 75.2744 20.4131L75.2695 20.4082C74.5284 19.8036 73.5956 19.4883 72.4375 19.4883Z" stroke="white" stroke-opacity="0.01"/>
<path d="M64 35.2906V16.3804H68.024V18.0106H68.6081C68.9759 17.4853 69.5492 17.0234 70.3281 16.6249C71.1069 16.2083 72.2211 16 73.6706 16C74.9687 16 76.1694 16.2717 77.2727 16.8151C78.3761 17.3404 79.2631 18.1192 79.9338 19.1517C80.6044 20.1842 80.9398 21.434 80.9398 22.9011V23.3359C80.9398 24.803 80.6044 26.0528 79.9338 27.0853C79.2631 28.1178 78.3761 28.9057 77.2727 29.4491C76.1694 29.9744 74.9687 30.237 73.6706 30.237C72.697 30.237 71.8749 30.1374 71.2043 29.9381C70.5552 29.757 70.0252 29.5215 69.6141 29.2317C69.2247 28.9238 68.911 28.6159 68.673 28.3079H68.0889V35.2906H64ZM72.4374 27.2483C73.7139 27.2483 74.7631 26.9132 75.5852 26.243C76.429 25.5547 76.8508 24.5585 76.8508 23.2544V22.9827C76.8508 21.6785 76.429 20.6913 75.5852 20.0211C74.7415 19.3328 73.6922 18.9887 72.4374 18.9887C71.1826 18.9887 70.1334 19.3328 69.2896 20.0211C68.4459 20.6913 68.024 21.6785 68.024 22.9827V23.2544C68.024 24.5585 68.4459 25.5547 69.2896 26.243C70.1334 26.9132 71.1826 27.2483 72.4374 27.2483Z" fill="white"/>
<path d="M73.6709 15.5C75.0383 15.5 76.3125 15.7866 77.4863 16.3633H77.4873C78.6746 16.9285 79.633 17.7697 80.3535 18.8789C81.0862 20.0069 81.4395 21.3563 81.4395 22.9014V23.3359C81.4394 24.8808 81.0861 26.2295 80.3535 27.3574C79.6338 28.4653 78.6774 29.3142 77.4932 29.8975L77.4873 29.9004C76.3128 30.4595 75.0384 30.7373 73.6709 30.7373C72.6702 30.7373 71.7996 30.6345 71.0703 30.4189V30.4199C70.4697 30.2523 69.9447 30.0356 69.5078 29.7617L69.3145 29.6328L69.3037 29.624C69.035 29.4116 68.7976 29.1927 68.5889 28.9717V35.791H63.5V15.8809H68.5244V17.3242C68.9291 16.8883 69.4566 16.5095 70.0918 16.1836C70.9755 15.7109 72.1859 15.5 73.6709 15.5ZM72.4375 19.4883C71.2794 19.4883 70.3466 19.8036 69.6055 20.4082L69.6006 20.4131C68.9018 20.9683 68.5245 21.7954 68.5244 22.9824V23.2539C68.5244 24.4379 68.8998 25.2773 69.6006 25.8516L69.7422 25.959C70.4598 26.4778 71.349 26.748 72.4375 26.748C73.6231 26.748 74.5538 26.4389 75.2695 25.8555C75.9734 25.2811 76.3506 24.4406 76.3506 23.2539V22.9824C76.3505 21.7955 75.9732 20.9683 75.2744 20.4131L75.2695 20.4082C74.5284 19.8036 73.5956 19.4883 72.4375 19.4883Z" stroke="white" stroke-opacity="0.01"/>
<path d="M84 35.2906V16.3804H88.024V18.0106H88.6081C88.9759 17.4853 89.5492 17.0234 90.3281 16.6249C91.1069 16.2083 92.2211 16 93.6706 16C94.9687 16 96.1694 16.2717 97.2727 16.8151C98.3761 17.3404 99.2631 18.1192 99.9338 19.1517C100.604 20.1842 100.94 21.434 100.94 22.9011V23.3359C100.94 24.803 100.604 26.0528 99.9338 27.0853C99.2631 28.1178 98.3761 28.9057 97.2727 29.4491C96.1694 29.9744 94.9687 30.237 93.6706 30.237C92.697 30.237 91.8749 30.1374 91.2043 29.9381C90.5552 29.757 90.0252 29.5215 89.6141 29.2317C89.2247 28.9238 88.911 28.6159 88.673 28.3079H88.0889V35.2906H84ZM92.4374 27.2483C93.7139 27.2483 94.7631 26.9132 95.5852 26.243C96.429 25.5547 96.8508 24.5585 96.8508 23.2544V22.9827C96.8508 21.6785 96.429 20.6913 95.5852 20.0211C94.7415 19.3328 93.6922 18.9887 92.4374 18.9887C91.1826 18.9887 90.1334 19.3328 89.2896 20.0211C88.4459 20.6913 88.024 21.6785 88.024 22.9827V23.2544C88.024 24.5585 88.4459 25.5547 89.2896 26.243C90.1334 26.9132 91.1826 27.2483 92.4374 27.2483Z" fill="white"/>
<path d="M93.6709 15.5C95.0383 15.5 96.3125 15.7866 97.4863 16.3633H97.4873C98.6746 16.9285 99.633 17.7697 100.354 18.8789C101.086 20.0069 101.439 21.3563 101.439 22.9014V23.3359C101.439 24.8808 101.086 26.2295 100.354 27.3574C99.6338 28.4653 98.6774 29.3142 97.4932 29.8975L97.4873 29.9004C96.3128 30.4595 95.0384 30.7373 93.6709 30.7373C92.6702 30.7373 91.7996 30.6345 91.0703 30.4189V30.4199C90.4697 30.2523 89.9447 30.0356 89.5078 29.7617L89.3145 29.6328L89.3037 29.624C89.035 29.4116 88.7976 29.1927 88.5889 28.9717V35.791H83.5V15.8809H88.5244V17.3242C88.9291 16.8883 89.4566 16.5095 90.0918 16.1836C90.9755 15.7109 92.1859 15.5 93.6709 15.5ZM92.4375 19.4883C91.2794 19.4883 90.3466 19.8036 89.6055 20.4082L89.6006 20.4131C88.9018 20.9683 88.5245 21.7954 88.5244 22.9824V23.2539C88.5244 24.4379 88.8998 25.2773 89.6006 25.8516L89.7422 25.959C90.4598 26.4778 91.349 26.748 92.4375 26.748C93.6231 26.748 94.5538 26.4389 95.2695 25.8555C95.9734 25.2811 96.3506 24.4406 96.3506 23.2539V22.9824C96.3505 21.7955 95.9732 20.9683 95.2744 20.4131L95.2695 20.4082C94.5284 19.8036 93.5956 19.4883 92.4375 19.4883Z" stroke="white" stroke-opacity="0.01"/>
<path d="M104.584 34.3993V20.923H108.673V34.3993H104.584ZM106.629 19.3472C105.893 19.3472 105.266 19.1479 104.746 18.7494C104.249 18.3509 104 17.8257 104 17.1736C104 16.5215 104.249 15.9962 104.746 15.5977C105.266 15.1992 105.893 15 106.629 15C107.386 15 108.013 15.1992 108.511 15.5977C109.008 15.9962 109.257 16.5215 109.257 17.1736C109.257 17.8257 109.008 18.3509 108.511 18.7494C108.013 19.1479 107.386 19.3472 106.629 19.3472Z" fill="white"/>
<path d="M109.173 20.4229V34.8994H104.084V20.4229H109.173ZM106.629 14.5C107.477 14.5001 108.221 14.725 108.823 15.207C109.442 15.7029 109.757 16.374 109.757 17.1738C109.757 17.9736 109.442 18.6438 108.823 19.1396C108.221 19.6218 107.477 19.8476 106.629 19.8477C105.798 19.8477 105.06 19.62 104.442 19.1465L104.434 19.1396C103.815 18.6438 103.5 17.9735 103.5 17.1738C103.5 16.374 103.814 15.7029 104.434 15.207L104.442 15.2012C105.06 14.7275 105.798 14.5 106.629 14.5Z" stroke="white" stroke-opacity="0.01"/>
<path d="M104.584 34.3993V20.923H108.673V34.3993H104.584ZM106.629 19.3472C105.893 19.3472 105.266 19.1479 104.746 18.7494C104.249 18.3509 104 17.8257 104 17.1736C104 16.5215 104.249 15.9962 104.746 15.5977C105.266 15.1992 105.893 15 106.629 15C107.386 15 108.013 15.1992 108.511 15.5977C109.008 15.9962 109.257 16.5215 109.257 17.1736C109.257 17.8257 109.008 18.3509 108.511 18.7494C108.013 19.1479 107.386 19.3472 106.629 19.3472Z" fill="white"/>
<path d="M109.173 20.4229V34.8994H104.084V20.4229H109.173ZM106.629 14.5C107.477 14.5001 108.221 14.725 108.823 15.207C109.442 15.7029 109.757 16.374 109.757 17.1738C109.757 17.9736 109.442 18.6438 108.823 19.1396C108.221 19.6218 107.477 19.8476 106.629 19.8477C105.798 19.8477 105.06 19.62 104.442 19.1465L104.434 19.1396C103.815 18.6438 103.5 17.9735 103.5 17.1738C103.5 16.374 103.814 15.7029 104.434 15.207L104.442 15.2012C105.06 14.7275 105.798 14.5 106.629 14.5Z" stroke="white" stroke-opacity="0.01"/>
<path d="M118.463 35C117.236 35 116.135 34.7824 115.162 34.3473C114.189 33.888 113.413 33.2354 112.834 32.3893C112.278 31.5191 112 30.4676 112 29.2347C112 28.0019 112.278 26.9746 112.834 26.1527C113.413 25.3066 114.201 24.6781 115.197 24.2672C116.216 23.8321 117.375 23.6145 118.672 23.6145H123.398V22.5992C123.398 21.7532 123.143 21.0643 122.633 20.5324C122.124 19.9765 121.313 19.6985 120.201 19.6985C119.112 19.6985 118.301 19.9644 117.768 20.4962C117.236 21.0038 116.888 21.6686 116.726 22.4905L112.695 21.0763C112.973 20.1578 113.413 19.3238 114.015 18.5744C114.641 17.8009 115.463 17.1845 116.483 16.7252C117.525 16.2417 118.788 16 120.27 16C122.541 16 124.336 16.5922 125.656 17.7767C126.977 18.9612 127.637 20.6775 127.637 22.9256V29.6336C127.637 30.3588 127.961 30.7214 128.61 30.7214H130V34.4924H127.081C126.224 34.4924 125.517 34.2748 124.961 33.8397C124.405 33.4046 124.127 32.8244 124.127 32.0992V32.063H123.467C123.375 32.353 123.166 32.7398 122.842 33.2233C122.517 33.6826 122.008 34.0935 121.313 34.4561C120.618 34.8187 119.668 35 118.463 35ZM119.228 31.3015C120.456 31.3015 121.452 30.951 122.216 30.25C123.004 29.5248 123.398 28.57 123.398 27.3855V27.0229H118.985C118.174 27.0229 117.537 27.2042 117.073 27.5668C116.61 27.9294 116.378 28.437 116.378 29.0897C116.378 29.7424 116.622 30.2742 117.108 30.6851C117.595 31.0961 118.301 31.3015 119.228 31.3015Z" fill="white"/>
<path d="M120.271 15.5C122.628 15.5 124.555 16.1166 125.99 17.4043C127.443 18.7077 128.137 20.5763 128.137 22.9258V29.6338C128.137 29.9321 128.205 30.0626 128.253 30.1162C128.291 30.1592 128.378 30.2217 128.61 30.2217H130.5V34.9922H127.081C126.137 34.9922 125.315 34.7511 124.653 34.2334C124.154 33.8425 123.836 33.347 123.701 32.7656C123.582 32.9922 123.433 33.2392 123.257 33.502L123.25 33.5117C122.865 34.0564 122.283 34.5137 121.544 34.8994C120.749 35.3139 119.709 35.5 118.463 35.5C117.176 35.4999 116.004 35.2715 114.958 34.8037L114.948 34.7998C113.899 34.3046 113.053 33.5948 112.421 32.6719L112.413 32.6582C111.797 31.6931 111.5 30.5439 111.5 29.2344C111.5 27.9262 111.796 26.7947 112.42 25.8721L112.421 25.8701C113.058 24.9397 113.925 24.2507 115.006 23.8047C116.096 23.3405 117.321 23.1143 118.672 23.1143H122.897V22.5996C122.897 21.8618 122.68 21.3027 122.272 20.8779L122.265 20.8701C121.887 20.4584 121.24 20.1983 120.201 20.1982C119.186 20.1982 118.525 20.4462 118.121 20.8496L118.113 20.8584C117.665 21.2851 117.362 21.852 117.217 22.5869L117.104 23.1533L116.561 22.9619L112.529 21.5479L112.078 21.3896L112.217 20.9316C112.513 19.9516 112.984 19.0599 113.626 18.2607L113.627 18.2598C114.306 17.4196 115.193 16.7586 116.272 16.2715L116.485 16.1768C117.565 15.7195 118.831 15.5 120.271 15.5ZM118.984 27.5225C118.244 27.5225 117.729 27.6891 117.382 27.9609C117.054 28.2175 116.878 28.5717 116.878 29.0898C116.878 29.5993 117.06 29.9896 117.431 30.3027C117.794 30.6093 118.367 30.8017 119.228 30.8018C120.354 30.8018 121.222 30.4829 121.878 29.8818L122 29.7637C122.565 29.1874 122.868 28.4522 122.895 27.5225H118.984Z" stroke="white" stroke-opacity="0.01"/>
<path d="M104.088 12.4132V6.0817H101.148V4.77173H108.929V6.0817H105.99V12.4132H104.088Z" fill="#FF4667"/>
<path d="M112.887 12.4133C112.277 12.4133 111.736 12.2794 111.266 12.0115C110.804 11.7349 110.441 11.3504 110.177 10.8578C109.921 10.3566 109.793 9.76892 109.793 9.09486V8.9393C109.793 8.26524 109.921 7.68192 110.177 7.18934C110.433 6.68811 110.792 6.30355 111.254 6.03566C111.716 5.75912 112.252 5.62085 112.863 5.62085C113.465 5.62085 113.989 5.76344 114.434 6.04862C114.88 6.32516 115.226 6.71404 115.474 7.21526C115.721 7.70785 115.845 8.28253 115.845 8.9393V9.4967H111.378C111.394 9.93743 111.551 10.2961 111.848 10.5726C112.145 10.8491 112.508 10.9874 112.937 10.9874C113.374 10.9874 113.696 10.888 113.902 10.6893C114.108 10.4905 114.265 10.2701 114.372 10.0282L115.647 10.7282C115.532 10.9528 115.362 11.1991 115.14 11.467C114.925 11.7263 114.636 11.951 114.273 12.1411C113.91 12.3226 113.448 12.4133 112.887 12.4133ZM111.39 8.27821H114.261C114.228 7.90661 114.084 7.60847 113.828 7.38378C113.58 7.15909 113.254 7.04675 112.85 7.04675C112.429 7.04675 112.095 7.15909 111.848 7.38378C111.6 7.60847 111.448 7.90661 111.39 8.27821Z" fill="#FF4667"/>
<path d="M119.783 12.4133C119.209 12.4133 118.687 12.2837 118.217 12.0244C117.754 11.7652 117.387 11.3893 117.116 10.8967C116.845 10.4041 116.71 9.80781 116.71 9.10782V8.92634C116.71 8.22636 116.845 7.63007 117.116 7.13749C117.387 6.6449 117.754 6.26899 118.217 6.00973C118.687 5.75048 119.209 5.62085 119.783 5.62085C120.349 5.62085 120.836 5.72887 121.242 5.94492C121.649 6.16096 121.976 6.45911 122.223 6.83935C122.478 7.21094 122.646 7.63439 122.725 8.10969L121.266 8.44672C121.234 8.18747 121.163 7.95414 121.051 7.74674C120.939 7.53933 120.78 7.37514 120.573 7.25415C120.373 7.13317 120.122 7.07267 119.819 7.07267C119.516 7.07267 119.241 7.14613 118.994 7.29304C118.755 7.43131 118.563 7.64303 118.42 7.92821C118.284 8.20475 118.217 8.5461 118.217 8.95227V9.08189C118.217 9.48806 118.284 9.83373 118.42 10.1189C118.563 10.3955 118.755 10.6072 118.994 10.7541C119.241 10.8924 119.516 10.9615 119.819 10.9615C120.274 10.9615 120.617 10.8362 120.848 10.5856C121.087 10.3263 121.238 9.98928 121.302 9.57448L122.761 9.9504C122.658 10.4084 122.478 10.8275 122.223 11.2078C121.976 11.5794 121.649 11.8732 121.242 12.0892C120.836 12.3053 120.349 12.4133 119.783 12.4133Z" fill="#FF4667"/>
<path d="M123.626 12.4133V4.24536H125.276V7.33751H125.511C125.581 7.21305 125.69 7.08858 125.839 6.96412C125.987 6.83965 126.183 6.73853 126.428 6.66074C126.681 6.57517 127 6.53238 127.384 6.53238C127.89 6.53238 128.331 6.6374 128.706 6.84743C129.09 7.04969 129.387 7.33362 129.597 7.69923C129.806 8.05707 129.911 8.47713 129.911 8.95943V12.4133H128.261V9.07611C128.261 8.64049 128.139 8.31377 127.894 8.09596C127.659 7.87815 127.318 7.76924 126.873 7.76924C126.367 7.76924 125.974 7.92093 125.695 8.22431C125.415 8.51992 125.276 8.93609 125.276 9.47284V12.4133H123.626Z" fill="#FF4667"/>
</svg>
