<svg width="134" height="39" viewBox="0 0 134 39" fill="none" xmlns="http://www.w3.org/2000/svg">
<path d="M32.2725 20.7334V31.9179C29.3324 33.5413 25.1806 35.3414 21.2396 35.3414C15.8382 35.3414 10.0408 31.9586 7.50698 30.288C6.69135 29.7498 6.19604 28.7953 6.19604 27.7684V20.7334H32.2725Z" fill="#FF4667"/>
<path d="M31.8737 30C31.1073 30.09 30.4013 30.4492 29.8889 31.01C29.3765 31.5707 29.093 32.2942 29.0923 33.0439V35.7488C29.0923 36.8455 29.6946 37.8589 30.6727 38.4072C31.6506 38.9556 32.8556 38.9556 33.8335 38.4072C34.8115 37.8589 35.414 36.8455 35.414 35.7488V33.0439C35.4132 32.2942 35.1297 31.5707 34.6174 31.01C34.105 30.4492 33.399 30.09 32.6326 30" fill="#392C7D"/>
<path d="M36.2879 17.081V22.8879C36.2879 23.7388 35.7925 24.5294 34.9771 24.9748C32.4434 26.3588 26.6463 29.1612 21.2444 29.1612C15.8427 29.1612 10.0456 26.3588 7.51188 24.9748C6.69645 24.5294 6.20104 23.7388 6.20104 22.8879V17.081H36.2879ZM37.1067 16.406H5.38245V22.8879C5.38245 23.9732 6.00947 24.9638 7.05975 25.5375C8.39464 26.2668 10.5048 27.3217 12.9767 28.2062C15.9991 29.2879 18.7807 29.8363 21.2444 29.8363C23.7083 29.8363 26.4899 29.2879 29.5123 28.2062C31.9842 27.3217 34.0943 26.2667 35.4292 25.5375C36.4795 24.9638 37.1067 23.9732 37.1067 22.8879V16.406Z" fill="#FF4667"/>
<path d="M40.3572 16.3112L22.1633 23.4534C21.5505 23.6939 20.8389 23.6933 20.2268 23.4517L1.93348 16.232C0.237554 15.5627 0.228549 13.5746 1.91834 12.8947L20.2018 5.53971C20.8279 5.28782 21.5602 5.28959 22.1847 5.54452L40.3886 12.9771C42.0698 13.6635 42.0512 15.6463 40.3572 16.3112Z" fill="#392C7D"/>
<path d="M21.1874 5.66309C21.4381 5.66309 21.6887 5.70934 21.9193 5.80184L40.5542 13.2754C41.7881 13.7702 41.7745 15.1994 40.5313 15.6788L21.9037 22.8615C21.6795 22.948 21.4371 22.9913 21.1947 22.9913C20.9512 22.9913 20.7078 22.9476 20.4827 22.8604L1.75602 15.6008C0.511396 15.1183 0.504847 13.6852 1.74487 13.1951L20.4641 5.79836C20.6923 5.70818 20.9399 5.66309 21.1874 5.66309ZM21.1874 5C20.8144 5 20.4402 5.07004 20.1051 5.20241L1.38597 12.5992C0.527463 12.9384 -0.00356379 13.6297 1.80059e-05 14.4032C0.0035998 15.1768 0.540971 15.8649 1.40255 16.1989L20.1291 23.4584C20.4598 23.5866 20.8282 23.6543 21.1946 23.6543C21.5593 23.6543 21.9263 23.5872 22.2555 23.4601L40.8831 16.2774C41.7437 15.9455 42.2829 15.2599 42.2902 14.4879C42.2977 13.716 41.7716 13.0236 40.9174 12.6811L22.2826 5.20763C21.9439 5.07178 21.5652 5 21.1874 5Z" fill="#392C7D"/>
<path d="M49.5 36C47.6974 36 46.0776 35.6183 44.6404 34.855C43.2032 34.0916 42.0705 32.9847 41.2423 31.5344C40.4141 30.084 40 28.341 40 26.3053V25.6947C40 23.659 40.4141 21.916 41.2423 20.4656C42.0705 19.0153 43.2032 17.9084 44.6404 17.145C46.0776 16.3817 47.6974 16 49.5 16C51.3026 16 52.9224 16.3817 54.3596 17.145C55.7968 17.9084 56.9295 19.0153 57.7577 20.4656C58.5859 21.916 59 23.659 59 25.6947V26.3053C59 28.341 58.5859 30.084 57.7577 31.5344C56.9295 32.9847 55.7968 34.0916 54.3596 34.855C52.9224 35.6183 51.3026 36 49.5 36ZM49.5 31.7252C50.9128 31.7252 52.0821 31.2545 53.0077 30.313C53.9333 29.3461 54.3962 27.972 54.3962 26.1908V25.8092C54.3962 24.028 53.9333 22.6667 53.0077 21.7252C52.1064 20.7583 50.9372 20.2748 49.5 20.2748C48.0872 20.2748 46.9179 20.7583 45.9923 21.7252C45.0667 22.6667 44.6038 24.028 44.6038 25.8092V26.1908C44.6038 27.972 45.0667 29.3461 45.9923 30.313C46.9179 31.2545 48.0872 31.7252 49.5 31.7252Z" fill="#392C7D"/>
<path d="M49.5 15.5C51.3752 15.5 53.0769 15.8976 54.5938 16.7031C56.1167 17.512 57.3176 18.6876 58.1914 20.2178C59.0712 21.7585 59.5 23.5908 59.5 25.6943V26.3057C59.5 28.4092 59.0712 30.2415 58.1914 31.7822C57.3176 33.3124 56.1167 34.488 54.5938 35.2969C53.0769 36.1024 51.3752 36.5 49.5 36.5C47.6248 36.5 45.9231 36.1024 44.4062 35.2969C42.8833 34.488 41.6824 33.3124 40.8086 31.7822C39.9288 30.2415 39.5 28.4092 39.5 26.3057V25.6943C39.5 23.5908 39.9288 21.7585 40.8086 20.2178C41.6824 18.6876 42.8833 17.512 44.4062 16.7031C45.9231 15.8976 47.6248 15.5 49.5 15.5ZM49.5 20.7744C48.2955 20.7744 47.3095 21.1558 46.5107 21.9141L46.3486 22.0762C45.5435 22.8953 45.1035 24.1128 45.1035 25.8096V26.1904C45.1035 27.8864 45.5433 29.1204 46.3535 29.9668H46.3525C47.1765 30.8028 48.2129 31.2256 49.5 31.2256C50.7868 31.2256 51.8226 30.8025 52.6465 29.9668C53.4567 29.1204 53.8965 27.8864 53.8965 26.1904V25.8096C53.8965 24.1128 53.4565 22.8953 52.6514 22.0762L52.6416 22.0664C51.8437 21.2104 50.812 20.7744 49.5 20.7744Z" stroke="white" stroke-opacity="0.01"/>
<path d="M62 36V16.3944H66.0383V18.0845H66.6245C66.9936 17.5399 67.569 17.061 68.3506 16.6479C69.1322 16.216 70.2503 16 71.705 16C73.0077 16 74.2126 16.2817 75.3199 16.8451C76.4272 17.3897 77.3174 18.1972 77.9904 19.2676C78.6635 20.338 79 21.6338 79 23.1549V23.6056C79 25.1268 78.6635 26.4225 77.9904 27.493C77.3174 28.5634 76.4272 29.3803 75.3199 29.9437C74.2126 30.4883 73.0077 30.7606 71.705 30.7606C70.728 30.7606 69.9029 30.6573 69.2299 30.4507C68.5785 30.2629 68.0466 30.0188 67.6341 29.7183C67.2433 29.3991 66.9285 29.0798 66.6897 28.7606H66.1034V36H62ZM70.4674 27.662C71.7484 27.662 72.8014 27.3146 73.6264 26.6197C74.4732 25.9061 74.8966 24.8732 74.8966 23.5211V23.2394C74.8966 21.8873 74.4732 20.8639 73.6264 20.169C72.7797 19.4554 71.7267 19.0986 70.4674 19.0986C69.2082 19.0986 68.1552 19.4554 67.3084 20.169C66.4617 20.8639 66.0383 21.8873 66.0383 23.2394V23.5211C66.0383 24.8732 66.4617 25.9061 67.3084 26.6197C68.1552 27.3146 69.2082 27.662 70.4674 27.662Z" fill="#392C7D"/>
<path d="M71.7051 15.5C73.0804 15.5 74.3617 15.7976 75.541 16.3965L75.7617 16.5098C76.8522 17.093 77.7381 17.926 78.4141 19.001C79.1466 20.166 79.5 21.5592 79.5 23.1553V23.6055C79.5 25.2013 79.1464 26.5938 78.4141 27.7588C77.6938 28.9043 76.7362 29.7845 75.5469 30.3896L75.541 30.3926C74.3613 30.9728 73.0799 31.2607 71.7051 31.2607C70.6961 31.2607 69.818 31.1543 69.083 30.9287V30.9277C68.3967 30.7291 67.8101 30.4646 67.3398 30.1221L67.3281 30.1143L67.3174 30.1055C67.0491 29.8863 66.8119 29.6611 66.6035 29.4336V36.5H61.5V15.8945H66.5381V17.3887C66.9427 16.939 67.4712 16.5477 68.1084 16.21C68.9967 15.7191 70.2133 15.5 71.7051 15.5ZM70.4678 19.5986C69.3093 19.5986 68.3751 19.9245 67.6309 20.5518L67.626 20.5557C66.9218 21.1335 66.5381 21.9985 66.5381 23.2393V23.5215C66.5382 24.7611 66.9212 25.6386 67.6299 26.2363C68.3734 26.8448 69.3081 27.1621 70.4678 27.1621C71.6539 27.162 72.5861 26.8425 73.3047 26.2373L73.4336 26.1221C74.06 25.5286 74.3964 24.6841 74.3965 23.5215V23.2393C74.3964 21.9986 74.0136 21.1335 73.3096 20.5557L73.3037 20.5518V20.5508C72.5596 19.9239 71.6258 19.5987 70.4678 19.5986Z" stroke="white" stroke-opacity="0.01"/>
<path d="M82 36V16.3944H86.0383V18.0845H86.6245C86.9936 17.5399 87.569 17.061 88.3506 16.6479C89.1322 16.216 90.2503 16 91.705 16C93.0077 16 94.2126 16.2817 95.3199 16.8451C96.4272 17.3897 97.3174 18.1972 97.9904 19.2676C98.6635 20.338 99 21.6338 99 23.1549V23.6056C99 25.1268 98.6635 26.4225 97.9904 27.493C97.3174 28.5634 96.4272 29.3803 95.3199 29.9437C94.2126 30.4883 93.0077 30.7606 91.705 30.7606C90.728 30.7606 89.9029 30.6573 89.2299 30.4507C88.5785 30.2629 88.0466 30.0188 87.6341 29.7183C87.2433 29.3991 86.9285 29.0798 86.6897 28.7606H86.1034V36H82ZM90.4674 27.662C91.7484 27.662 92.8014 27.3146 93.6264 26.6197C94.4732 25.9061 94.8966 24.8732 94.8966 23.5211V23.2394C94.8966 21.8873 94.4732 20.8639 93.6264 20.169C92.7797 19.4554 91.7267 19.0986 90.4674 19.0986C89.2082 19.0986 88.1552 19.4554 87.3084 20.169C86.4617 20.8639 86.0383 21.8873 86.0383 23.2394V23.5211C86.0383 24.8732 86.4617 25.9061 87.3084 26.6197C88.1552 27.3146 89.2082 27.662 90.4674 27.662Z" fill="#392C7D"/>
<path d="M91.7051 15.5C93.0804 15.5 94.3617 15.7976 95.541 16.3965L95.7617 16.5098C96.8522 17.093 97.7381 17.926 98.4141 19.001C99.1466 20.166 99.5 21.5592 99.5 23.1553V23.6055C99.5 25.2013 99.1464 26.5938 98.4141 27.7588C97.6938 28.9043 96.7362 29.7845 95.5469 30.3896L95.541 30.3926C94.3613 30.9728 93.0799 31.2607 91.7051 31.2607C90.6961 31.2607 89.818 31.1543 89.083 30.9287V30.9277C88.3967 30.7291 87.8101 30.4646 87.3398 30.1221L87.3281 30.1143L87.3174 30.1055C87.0491 29.8863 86.8119 29.6611 86.6035 29.4336V36.5H81.5V15.8945H86.5381V17.3887C86.9427 16.939 87.4712 16.5477 88.1084 16.21C88.9967 15.7191 90.2133 15.5 91.7051 15.5ZM90.4678 19.5986C89.3093 19.5986 88.3751 19.9245 87.6309 20.5518L87.626 20.5557C86.9218 21.1335 86.5381 21.9985 86.5381 23.2393V23.5215C86.5382 24.7611 86.9212 25.6386 87.6299 26.2363C88.3734 26.8448 89.3081 27.1621 90.4678 27.1621C91.6539 27.162 92.5861 26.8425 93.3047 26.2373L93.4336 26.1221C94.06 25.5286 94.3964 24.6841 94.3965 23.5215V23.2393C94.3964 21.9986 94.0136 21.1335 93.3096 20.5557L93.3037 20.5518V20.5508C92.5596 19.9239 91.6258 19.5987 90.4678 19.5986Z" stroke="white" stroke-opacity="0.01"/>
<path d="M102.556 35.6V21.9843H106.444V35.6H102.556ZM104.5 20.3922C103.8 20.3922 103.204 20.1909 102.71 19.7882C102.237 19.3856 102 18.8549 102 18.1961C102 17.5373 102.237 17.0065 102.71 16.6039C103.204 16.2013 103.8 16 104.5 16C105.22 16 105.817 16.2013 106.29 16.6039C106.763 17.0065 107 17.5373 107 18.1961C107 18.8549 106.763 19.3856 106.29 19.7882C105.817 20.1909 105.22 20.3922 104.5 20.3922Z" fill="#392C7D"/>
<path d="M106.944 21.4844V36.0996H102.056V21.4844H106.944ZM104.5 15.5C105.319 15.5 106.036 15.7312 106.614 16.2227C107.207 16.7266 107.5 17.4009 107.5 18.1963C107.5 18.9915 107.206 19.665 106.614 20.1689C106.036 20.6605 105.319 20.8926 104.5 20.8926C103.697 20.8926 102.986 20.6584 102.394 20.1758L102.386 20.1689C101.794 19.665 101.5 18.9915 101.5 18.1963C101.5 17.4009 101.793 16.7266 102.386 16.2227L102.394 16.2168C102.986 15.7342 103.697 15.5 104.5 15.5Z" stroke="white" stroke-opacity="0.01"/>
<path d="M116.104 36C114.945 36 113.905 35.7824 112.986 35.3473C112.068 34.888 111.335 34.2354 110.788 33.3893C110.263 32.5191 110 31.4676 110 30.2347C110 29.0019 110.263 27.9746 110.788 27.1527C111.335 26.3066 112.079 25.6781 113.019 25.2672C113.982 24.8321 115.076 24.6145 116.301 24.6145H120.764V23.5992C120.764 22.7532 120.524 22.0643 120.042 21.5324C119.561 20.9765 118.795 20.6985 117.745 20.6985C116.717 20.6985 115.951 20.9644 115.448 21.4962C114.945 22.0038 114.616 22.6686 114.463 23.4905L110.656 22.0763C110.919 21.1578 111.335 20.3238 111.903 19.5744C112.494 18.8009 113.271 18.1845 114.234 17.7252C115.218 17.2417 116.411 17 117.811 17C119.955 17 121.651 17.5922 122.898 18.7767C124.145 19.9612 124.768 21.6775 124.768 23.9256V30.6336C124.768 31.3588 125.075 31.7214 125.687 31.7214H127V35.4924H124.243C123.434 35.4924 122.766 35.2748 122.241 34.8397C121.716 34.4046 121.454 33.8244 121.454 33.0992V33.063H120.83C120.743 33.353 120.546 33.7398 120.239 34.2233C119.933 34.6826 119.452 35.0935 118.795 35.4561C118.139 35.8187 117.242 36 116.104 36ZM116.826 32.3015C117.986 32.3015 118.927 31.951 119.649 31.25C120.393 30.5248 120.764 29.57 120.764 28.3855V28.0229H116.597C115.831 28.0229 115.229 28.2042 114.792 28.5668C114.354 28.9294 114.135 29.437 114.135 30.0897C114.135 30.7424 114.365 31.2742 114.824 31.6851C115.284 32.0961 115.951 32.3015 116.826 32.3015Z" fill="#392C7D"/>
<path d="M117.811 16.5C120.05 16.5 121.881 17.1209 123.242 18.4141C124.617 19.7196 125.269 21.5848 125.269 23.9258V30.6338C125.269 30.9378 125.334 31.0729 125.38 31.127C125.412 31.1649 125.483 31.2217 125.688 31.2217H127.5V35.9922H124.243C123.34 35.9922 122.553 35.7474 121.922 35.2246C121.468 34.8488 121.176 34.3802 121.041 33.8369C120.936 34.0402 120.809 34.2593 120.662 34.4912L120.655 34.501C120.292 35.0462 119.74 35.5055 119.037 35.8936C118.278 36.3128 117.286 36.5 116.104 36.5C114.881 36.5 113.767 36.2698 112.772 35.7988L112.763 35.7949C111.766 35.2966 110.965 34.5836 110.368 33.6611L110.363 33.6543L110.359 33.6475C109.778 32.6842 109.5 31.5387 109.5 30.2344C109.5 28.9315 109.778 27.8047 110.366 26.8838L110.368 26.8809C110.894 26.0671 111.589 25.4356 112.443 24.9893L112.819 24.8086C113.855 24.3418 115.018 24.1143 116.301 24.1143H120.265V23.5996C120.265 22.8541 120.055 22.2919 119.672 21.8682L119.664 21.8594C119.313 21.4539 118.714 21.1982 117.745 21.1982C116.798 21.1983 116.187 21.4429 115.812 21.8398L115.803 21.8486C115.382 22.2736 115.093 22.8418 114.955 23.582L114.846 24.166L114.289 23.959L110.482 22.5449L110.049 22.3838L110.176 21.9385C110.455 20.9616 110.898 20.0718 111.505 19.2725L111.506 19.2705C112.069 18.5335 112.784 17.9328 113.642 17.4658L114.019 17.2734C115.087 16.7502 116.357 16.5 117.811 16.5ZM116.597 28.5225C115.907 28.5225 115.431 28.6862 115.11 28.9521C114.805 29.205 114.635 29.5615 114.635 30.0898C114.635 30.6095 114.811 31.0026 115.157 31.3125C115.493 31.6127 116.023 31.8017 116.826 31.8018C117.877 31.8018 118.685 31.4879 119.3 30.8916L119.415 30.7734C119.948 30.1985 120.236 29.4603 120.262 28.5225H116.597Z" stroke="white" stroke-opacity="0.01"/>
<path d="M103.497 12.4132V6.0817H100.5V4.77173H108.434V6.0817H105.437V12.4132H103.497Z" fill="#FF4667"/>
<path d="M112.471 12.4133C111.848 12.4133 111.297 12.2794 110.818 12.0115C110.346 11.7349 109.976 11.3504 109.707 10.8578C109.446 10.3566 109.316 9.76892 109.316 9.09486V8.9393C109.316 8.26524 109.446 7.68192 109.707 7.18934C109.968 6.68811 110.334 6.30355 110.805 6.03566C111.276 5.75912 111.823 5.62085 112.445 5.62085C113.06 5.62085 113.594 5.76344 114.048 6.04862C114.503 6.32516 114.856 6.71404 115.108 7.21526C115.361 7.70785 115.487 8.28253 115.487 8.9393V9.4967H110.931C110.948 9.93743 111.108 10.2961 111.411 10.5726C111.714 10.8491 112.084 10.9874 112.521 10.9874C112.967 10.9874 113.295 10.888 113.506 10.6893C113.716 10.4905 113.876 10.2701 113.985 10.0282L115.285 10.7282C115.167 10.9528 114.995 11.1991 114.768 11.467C114.549 11.7263 114.254 11.951 113.884 12.1411C113.514 12.3226 113.043 12.4133 112.471 12.4133ZM110.944 8.27821H113.872C113.838 7.90661 113.691 7.60847 113.43 7.38378C113.177 7.15909 112.845 7.04675 112.433 7.04675C112.004 7.04675 111.663 7.15909 111.411 7.38378C111.158 7.60847 111.003 7.90661 110.944 8.27821Z" fill="#FF4667"/>
<path d="M119.503 12.4133C118.917 12.4133 118.385 12.2837 117.905 12.0244C117.434 11.7652 117.06 11.3893 116.783 10.8967C116.507 10.4041 116.369 9.80781 116.369 9.10782V8.92634C116.369 8.22636 116.507 7.63007 116.783 7.13749C117.06 6.6449 117.434 6.26899 117.905 6.00973C118.385 5.75048 118.917 5.62085 119.503 5.62085C120.08 5.62085 120.576 5.72887 120.991 5.94492C121.405 6.16096 121.739 6.45911 121.991 6.83935C122.251 7.21094 122.422 7.63439 122.503 8.10969L121.015 8.44672C120.983 8.18747 120.909 7.95414 120.796 7.74674C120.682 7.53933 120.519 7.37514 120.308 7.25415C120.104 7.13317 119.848 7.07267 119.539 7.07267C119.23 7.07267 118.95 7.14613 118.698 7.29304C118.454 7.43131 118.259 7.64303 118.113 7.92821C117.974 8.20475 117.905 8.5461 117.905 8.95227V9.08189C117.905 9.48806 117.974 9.83373 118.113 10.1189C118.259 10.3955 118.454 10.6072 118.698 10.7541C118.95 10.8924 119.23 10.9615 119.539 10.9615C120.003 10.9615 120.352 10.8362 120.588 10.5856C120.832 10.3263 120.987 9.98928 121.052 9.57448L122.54 9.9504C122.434 10.4084 122.251 10.8275 121.991 11.2078C121.739 11.5794 121.405 11.8732 120.991 12.0892C120.576 12.3053 120.08 12.4133 119.503 12.4133Z" fill="#FF4667"/>
<path d="M123.421 12.4133V4.24536H125.103V7.33751H125.344C125.415 7.21305 125.526 7.08858 125.678 6.96412C125.829 6.83965 126.029 6.73853 126.278 6.66074C126.537 6.57517 126.861 6.53238 127.253 6.53238C127.769 6.53238 128.219 6.6374 128.602 6.84743C128.993 7.04969 129.296 7.33362 129.51 7.69923C129.723 8.05707 129.83 8.47713 129.83 8.95943V12.4133H128.148V9.07611C128.148 8.64049 128.023 8.31377 127.774 8.09596C127.534 7.87815 127.186 7.76924 126.732 7.76924C126.216 7.76924 125.816 7.92093 125.531 8.22431C125.246 8.51992 125.103 8.93609 125.103 9.47284V12.4133H123.421Z" fill="#FF4667"/>
</svg>
